<svg xmlns="http://www.w3.org/2000/svg" xmlns:xlink="http://www.w3.org/1999/xlink" xmlns:inkscape="http://www.inkscape.org/namespaces/inkscape" version="1.1" width="595.275" height="841.89" viewBox="0 0 595.275 841.89">
<defs>
<clipPath id="clip_1">
<path transform="matrix(1,0,0,-1,0,841.89)" d="M0 841.89H595.275V0H0Z"/>
</clipPath>
</defs>
<g inkscape:groupmode="layer" inkscape:label="Layer 1">
<g clip-path="url(#clip_1)">
<path transform="matrix(1,0,0,-1,21.9238,270.05213)" d="M0 0H52.703V-81.658H53.397C58.942-74.123 65.339-68.296 73.661-64.187 81.634-60.074 91.345-57.674 101.052-57.674 134.687-57.674 160.343-80.633 160.343-131.344V-228.997H107.641V-136.827C107.641-114.896 100.013-99.82 80.248-99.82 66.38-99.82 58.25-108.728 54.437-118.322 53.048-121.406 52.703-125.86 52.703-129.63V-228.997H0Z" fill="#b31e3b"/>
<path transform="matrix(1,0,0,-1,272.5513,427.0834)" d="M0 0C0-4.112 .347-7.537 1.037-10.965 4.506-25.013 16.639-35.637 31.899-35.637 54.779-35.637 68.302-16.789 68.302 11.649 68.302 38.374 56.167 58.592 32.591 58.592 17.682 58.592 4.506 47.627 1.037 32.208 .347 29.468 0 26.041 0 22.957ZM-52.705 39.403C-52.705 61.333-53.399 79.835-54.093 94.608H-8.323L-5.897 72.295H-5.203C7.279 89.771 26.697 99.365 51.312 99.365 88.414 99.365 121.699 67.5 121.699 14.049 121.699-46.942 82.515-75.724 44.727-75.724 24.271-75.724 8.32-67.501 .69-56.534H0V-134.377H-52.705Z" fill="#b31e3b"/>
<path transform="matrix(1,0,0,-1,483.3418,290.87)" d="M0 0V-41.624H38.462V-79.066H0V-140.055C0-160.273 5.181-169.523 20.722-169.523 27.973-169.523 31.432-169.179 36.268-168.152L36.608-207.557C30.048-209.957 17.267-212.011 2.761-212.011-14.164-212.011-28.327-206.184-36.963-197.618-46.637-187.684-51.473-171.579-51.473-147.936V-79.066H-73.924V-41.624H-51.473V-14.048Z" fill="#b31e3b"/>
<path transform="matrix(1,0,0,-1,310.2266,561.3539)" d="M0 0 7.931 42.007H12.843L7.813 15.68H7.931C8.817 16.685 9.881 17.748 10.589 18.579L20.709 28.637H26.744L14.259 16.863 22.838 0H17.396L10.531 14.139 6.926 10.887 4.852 0Z" fill="#8f8f8f"/>
<path transform="matrix(1,0,0,-1,337.3818,561.3539)" d="M0 0 3.847 20.294C4.501 23.488 4.852 26.269 5.209 28.637H9.585L8.877 23.015H8.995C11.541 27.039 15.383 29.286 19.586 29.286 23.018 29.286 26.863 27.334 26.863 21.299 26.863 20.056 26.627 18.222 26.33 16.685L23.136 0H18.224L21.358 16.506C21.597 17.63 21.773 18.992 21.773 20.174 21.773 23.073 20.649 25.203 17.279 25.203 13.788 25.203 8.818 21.004 7.517 13.904L4.912 0Z" fill="#8f8f8f"/>
<path transform="matrix(1,0,0,-1,374.3008,550.0541)" d="M0 0C0-4.673 2.544-8.046 6.748-8.046 12.546-8.046 16.922-.592 16.922 6.095 16.922 9.407 15.383 14.08 10.238 14.08 4.083 14.08-.06 6.568 0 0M21.952 6.035C21.952-2.779 15.68-11.952 6.094-11.952-1.065-11.952-5.086-6.627-5.086-.177-5.086 9.231 1.481 17.986 10.769 17.986 18.521 17.986 21.952 12.13 21.952 6.035" fill="#8f8f8f"/>
<path transform="matrix(1,0,0,-1,405.8975,532.7171)" d="M0 0 1.005-16.093C1.241-19.645 1.184-21.479 1.123-23.785H1.302C1.95-21.952 3.016-19.466 4.436-16.627L12.957 0H17.214L18.992-16.332C19.289-19.466 19.521-21.892 19.463-23.785H19.582C20.353-21.479 21.181-19.289 22.305-16.566L30.053 0H35.022L20.884-28.637H16.327L14.436-13.075C14.141-10.415 14.021-7.989 14.021-5.504H13.901C12.718-8.225 11.892-10.415 10.589-12.957L2.365-28.637H-2.193L-4.852 0Z" fill="#8f8f8f"/>
<path transform="matrix(1,0,0,-1,449.9141,527.808)" d="M0 0C-1.655 0-2.78 1.302-2.78 3.078-2.721 4.97-1.302 6.391 .474 6.391 2.247 6.391 3.371 5.088 3.371 3.313 3.311 1.362 1.954 0 .059 0ZM-9.173-33.546-3.667-4.909H1.242L-4.261-33.546Z" fill="#8f8f8f"/>
<path transform="matrix(1,0,0,-1,454.1113,561.3539)" d="M0 0 3.849 20.294C4.501 23.488 4.854 26.269 5.209 28.637H9.587L8.877 23.015H8.997C11.541 27.039 15.383 29.286 19.586 29.286 23.018 29.286 26.863 27.334 26.863 21.299 26.863 20.056 26.627 18.222 26.33 16.685L23.136 0H18.224L21.36 16.506C21.597 17.63 21.775 18.992 21.775 20.174 21.775 23.073 20.651 25.203 17.279 25.203 13.788 25.203 8.818 21.004 7.517 13.904L4.912 0Z" fill="#8f8f8f"/>
<path transform="matrix(1,0,0,-1,507.7754,536.9789)" d="M0 0C-.887 .413-2.664 .949-4.732 .949-11.892 .949-16.803-6.507-16.863-13.607-16.863-16.743-15.739-20.471-11.357-20.471-7.158-20.471-2.839-15.144-1.832-9.524ZM-21.947-30.884C-20.234-31.947-17.393-32.777-14.377-32.777-9.586-32.777-5.798-30.292-4.081-22.541L-3.134-18.28H-3.313C-5.798-22.363-9.289-24.375-13.254-24.375-18.992-24.375-21.947-19.523-21.947-14.436-22.008-4.733-14.849 4.911-3.788 4.911-.472 4.911 3.138 3.967 5.385 2.899L1.005-20.766C-.179-26.801-1.773-31.002-4.793-33.546-7.63-36.03-11.477-36.74-14.789-36.74-18.279-36.74-21.536-35.914-23.37-34.729Z" fill="#8f8f8f"/>
<path transform="matrix(1,0,0,-1,0,841.89)" d="M538.77 280.536H529.40707V321.778H538.77Z" fill="#8f8f8f"/>
<path transform="matrix(1,0,0,-1,554.624,527.9447)" d="M0 0H-11.073V7.833H20.621V0H9.361V-33.409H0Z" fill="#8f8f8f"/>
</g>
</g>
</svg>
