<svg width="94" height="35" viewBox="0 0 94 35" fill="none" xmlns="http://www.w3.org/2000/svg">
	<g clip-path="url(#clip0_183813_39606)">
		<path d="M72.1301 25.1597H70.1201V34.4197H72.1301V25.1597Z" fill="#231F20"/>
		<path d="M79.9 34.4197H75.5C74.47 34.4197 73.95 33.9597 73.95 33.0297V26.5497C73.95 25.6197 74.47 25.1597 75.5 25.1597H79.62C80.32 25.1597 80.93 25.2497 81.45 25.4297C81.97 25.6097 82.37 25.8497 82.67 26.1297C82.97 26.4197 83.21 26.7697 83.39 27.1897C83.57 27.6097 83.68 28.0297 83.74 28.4297C83.8 28.8297 83.82 29.2797 83.82 29.7897C83.82 30.2797 83.79 30.7297 83.74 31.1397C83.68 31.5397 83.57 31.9597 83.41 32.3797C83.24 32.7997 83.02 33.1597 82.74 33.4397C82.46 33.7297 82.08 33.9597 81.6 34.1397C81.11 34.3297 80.55 34.4197 79.9 34.4197ZM78.93 26.5497H76.73C76.43 26.5497 76.22 26.5897 76.12 26.6797C76.02 26.7697 75.97 26.9397 75.97 27.2097V32.3697C75.97 32.6297 76.02 32.8097 76.12 32.8997C76.22 32.9897 76.42 33.0297 76.73 33.0297H78.93C79.52 33.0297 80 32.9497 80.39 32.7997C80.78 32.6497 81.06 32.4097 81.26 32.0897C81.45 31.7697 81.58 31.4397 81.66 31.0797C81.73 30.7297 81.77 30.2997 81.77 29.7797C81.77 29.2697 81.73 28.8397 81.66 28.4797C81.59 28.1297 81.46 27.7897 81.26 27.4697C81.07 27.1497 80.78 26.9197 80.39 26.7597C80 26.6297 79.51 26.5497 78.93 26.5497Z" fill="#231F20"/>
		<path d="M94 34.4197H89.56C88.68 34.4197 87.93 34.3097 87.32 34.0797C86.71 33.8597 86.25 33.5197 85.92 33.0897C85.59 32.6497 85.37 32.1697 85.23 31.6397C85.1 31.1097 85.03 30.4897 85.03 29.7897C85.03 29.0897 85.09 28.4697 85.23 27.9397C85.36 27.4097 85.59 26.9297 85.92 26.4897C86.24 26.0497 86.71 25.7197 87.32 25.4997C87.93 25.2797 88.68 25.1597 89.56 25.1597H93.83V26.5497H90.5C89.2 26.5497 88.31 26.7797 87.83 27.2297C87.35 27.6797 87.11 28.5397 87.11 29.7897C87.11 31.0397 87.35 31.8997 87.83 32.3497C88.31 32.7997 89.2 33.0297 90.5 33.0297H94V34.4197Z" fill="#231F20"/>
		<path d="M21.75 3.88965H20.18C19.56 3.88965 19.05 4.39965 19.05 5.01965V16.6196C19.05 17.2396 19.56 17.7496 20.18 17.7496H21.75C22.37 17.7496 22.88 17.2396 22.88 16.6196V5.01965C22.88 4.38965 22.37 3.88965 21.75 3.88965Z" fill="#EE0033"/>
		<path d="M16.12 3.88988C15.13 3.88988 14.3 4.47988 13.9 5.32988L9.74 14.1699C9.64 14.3799 9.45 14.7199 9.28 14.7199C9.12 14.7199 8.92 14.3799 8.82 14.1699L4.64 5.31988C4.24 4.46988 3.41 3.87988 2.42 3.87988H0L6.6 16.6699C7.25 17.9299 8.59 17.8999 9.28 17.8999C10.23 17.8999 11.34 17.8499 11.93 16.6699L18.53 3.87988H16.12V3.88988Z" fill="#EE0033"/>
		<path d="M89.06 1.75988C89.06 1.13988 88.55 0.629883 87.93 0.629883H86.37C85.75 0.629883 85.24 1.13988 85.24 1.75988V13.2199C85.24 14.9699 85.86 15.9899 86.97 16.7199C88.05 17.4299 89.29 17.7399 91.61 17.7399H92.87C93.49 17.7399 94 17.2299 94 16.6099V15.3899H93.05C92.36 15.3899 90.92 15.3599 90.08 14.7899C88.97 14.0599 89.07 12.7499 89.07 11.8099V1.75988H89.06Z" fill="#EE0033"/>
		<path d="M64.5801 15.3899C63.8901 15.3899 62.4601 15.3599 61.6101 14.7899C60.5001 14.0599 60.6001 12.7499 60.6001 11.8099V6.23988H64.3101C64.9301 6.23988 65.4401 5.72988 65.4401 5.10988V3.88988H60.6001V1.75988C60.6001 1.13988 60.1001 0.629883 59.4701 0.629883H57.9001C57.2801 0.629883 56.7701 1.13988 56.7701 1.75988V3.87988H48.8001V1.75988C48.8001 1.13988 48.3001 0.629883 47.6701 0.629883H46.1001C45.4801 0.629883 44.9701 1.13988 44.9701 1.75988V3.87988H42.5901V5.09988C42.5901 5.71988 43.0901 6.22988 43.7201 6.22988H44.9801V13.2099C44.9801 14.9599 45.6001 15.9799 46.7101 16.7099C47.7901 17.4199 49.0301 17.7299 51.3501 17.7299H52.6101C53.2301 17.7299 53.7401 17.2199 53.7401 16.5999V15.3799H52.7901C52.1001 15.3799 50.6701 15.3499 49.8201 14.7799C48.7101 14.0499 48.8101 12.7399 48.8101 11.7999V6.23988H56.7801V13.2199C56.7801 14.9699 57.4001 15.9899 58.5101 16.7199C59.5901 17.4299 60.8301 17.7399 63.1501 17.7399H64.4101C65.0301 17.7399 65.5401 17.2299 65.5401 16.6099V15.3899H64.5801Z" fill="#EE0033"/>
		<path d="M41.18 16.6096V15.3896H32.72C31.31 15.3896 29.71 15.2296 29.22 13.7396C29.09 13.3196 28.99 12.4296 28.99 11.8296H39.06C39.75 11.8296 40.4 11.7296 40.92 11.3096C41.64 10.7296 41.74 9.91959 41.74 9.21959C41.74 7.46959 41.31 5.73959 39.29 4.71959C37.69 3.90959 35.6 3.82959 33.57 3.82959C31.94 3.82959 28.99 3.82959 27.1 5.13959C25.2 6.44959 25.04 8.35959 25.04 10.9396C25.04 12.7696 25.14 14.6796 26.28 15.9896C27.72 17.6096 29.81 17.7396 31.57 17.7396H40.05C40.68 17.7396 41.18 17.2396 41.18 16.6096ZM37.78 8.66959C37.78 9.03959 37.68 9.47959 36.93 9.47959H31.5C30.12 9.47959 29 10.1096 29 10.8896V9.47959C29.03 8.55959 29 7.80959 29.78 7.09959C30.83 6.15959 32.4 6.18959 33.41 6.18959C34.49 6.18959 35.73 6.23959 36.68 6.81959C37.23 7.14959 37.78 7.80959 37.78 8.66959Z" fill="#EE0033"/>
		<path d="M82.5299 16.6096V15.3896H74.0699C72.6599 15.3896 71.0599 15.2296 70.5699 13.7396C70.4399 13.3196 70.3399 12.4296 70.3399 11.8296H80.3999C81.0899 11.8296 81.7399 11.7296 82.2599 11.3096C82.9799 10.7296 83.0799 9.91959 83.0799 9.21959C83.0799 7.46959 82.6599 5.73959 80.6299 4.71959C79.0299 3.90959 76.9399 3.82959 74.9099 3.82959C73.2799 3.82959 70.3399 3.82959 68.4399 5.13959C66.5399 6.44959 66.3799 8.35959 66.3799 10.9396C66.3799 12.7696 66.4799 14.6796 67.6199 15.9896C69.0599 17.6096 71.1499 17.7396 72.9099 17.7396H81.3899C82.0199 17.7396 82.5299 17.2396 82.5299 16.6096ZM79.1299 8.66959C79.1299 9.03959 79.0299 9.47959 78.2799 9.47959H72.8399C71.4599 9.47959 70.3399 10.1096 70.3399 10.8896V9.47959C70.3699 8.55959 70.3399 7.80959 71.1199 7.09959C72.1699 6.15959 73.7299 6.18959 74.7499 6.18959C75.8299 6.18959 77.0699 6.23959 78.0199 6.81959C78.5699 7.14959 79.1299 7.80959 79.1299 8.66959Z" fill="#EE0033"/>
		<path d="M21.75 0.00976562H20.18C19.56 0.00976562 19.05 0.519766 19.05 1.13977V1.44977V3.88977H19.07C19.18 3.24977 19.9 2.57977 20.97 2.57977H21.75C22.37 2.57977 22.88 2.06977 22.88 1.44977V1.13977C22.88 0.509766 22.38 0.00976562 21.75 0.00976562Z" fill="#EE0033"/>
	</g>
	<defs>
		<clipPath id="clip0_183813_39606">
			<rect width="94" height="35" fill="white"/>
		</clipPath>
	</defs>
</svg>
